<svg xmlns="http://www.w3.org/2000/svg" preserveAspectRatio="xMidYMid meet" data-bbox="0 0 356.45 159.07" viewBox="0 0 356.45 159.07" data-type="color" aria-hidden="true" aria-label=""><g><path d="M169.59 84.77c3.42-6.08 7.26-11.83 5.32-19.06-.73-2.74-2.65-5.18-1.96-8.24.25-1.1.34-2.59 1.08-3.12.79-.58 2.79-.77 3.32-.23 4.18 4.38 9.13 4.16 14.35 2.85 1.1-.28 2.17-.69 3.27-.96 3.69-.92 6.94 1.83 6.52 5.64-.4 3.67-2.47 6.46-5.59 8.16-7.48 4.06-11.58 11.03-15.91 17.85-.17.27-.17.65-.31 1.24 4.55 1.4 9.18 2.13 13.72 1.3 4.94-.9 9.71-2.71 14.6-3.96.85-.22 1.9.32 2.86.5-.5.88-.78 2.19-1.53 2.56-30.63 15-57.73-8.19-61.84-28.75-5.22-26.11 9.88-49.81 36.14-53.97 8.93-1.42 17.45-.08 25.52 3.93.88.44 1.26 1.88 1.88 2.86-1.09.07-2.35.55-3.23.16-6.85-3-13.88-4.69-21.69-3.7.11.78.04 1.49.31 2.05 2.76 5.76 5.28 11.65 8.47 17.16 1.8 3.12 4.59 5.72 7.17 8.31 2.06 2.06 3.45 4.17 2.75 7.19-.71 3.07-2.65 4.89-5.74 5.36-2.95.46-5.16 1.95-6.9 4.35-1.56 2.14-7.53 2.67-10.22 1.02-3.08-1.9-4.62-5.58-2.87-8.56 3.66-6.25 3.17-12.45.94-18.95-1.39-4.04-2.26-8.26-3.38-12.4-.74-2.74-1.58-3.13-4.13-1.76-11.56 6.22-19.86 15.17-21.89 28.51-2.01 13.18.99 25.26 10.07 35.44.28.31.68.53 1.41 1.08 2.5-4.9 4.62-9.65 4.3-15.19-.07-1.18-.13-2.62.46-3.49.57-.85 1.98-1.46 3.05-1.51.57-.03 1.39 1.28 1.77 2.14.78 1.74 1.15 3.68 2.02 5.37 1.29 2.49.83 4.46-1.02 6.43-2.04 2.17-3.93 4.48-5.87 6.74-1.54 1.81-1.79 3.37.88 4.38.55.21 1.01.66 1.94 1.3Z" fill="#a01a2a" data-color="1"></path><path d="M188.21 0c.71.38 2.91.97 2.95 1.68.16 2.78-2.28 1.61-3.69 1.73-21.99 1.85-39 16.57-42.93 38.25-4.66 25.72 11.48 49.1 37.09 54.25 2.38.48 4.85.49 7.28.65 1.2.08 2.38.07 2.37 1.72-.02 1.59-1.06 1.76-2.35 1.72-24.78-.9-44.64-18.52-47.98-43.01C136.99 27.98 157.47 4.44 182.47.8c1.64-.24 3.28-.46 5.73-.8Z" fill="#5b5c5b" data-color="2"></path><path d="M191.39 105.88c-29.8-.54-52.17-20-56.74-48.42-.39-2.41-.53-4.89-.47-7.33.02-.75 1.08-1.48 1.66-2.21.48.7 1.34 1.37 1.38 2.1.6 10.12 2.61 19.9 8.47 28.32 11.67 16.76 27.68 25.53 48.34 24.02 5.73-.42 11.32-2.73 16.97-4.18.42-.11.81-.5 1.2-.49.93.04 1.85.24 2.77.37-.48.86-.77 2.27-1.46 2.5-4.86 1.67-9.75 3.29-14.73 4.53-2.77.69-5.73.63-7.4.79Z" fill="#a01a2a" data-color="1"></path><path d="M211.89 45.46c.35 4.04-1.75 7.04-4.22 9.8-1.48 1.65-5.16 2.06-7.16 1.1-1.97-.95-2.32-2.97-.49-4.12 4.87-3.04 6.54-7.45 6.14-12.95-.05-.64.45-1.82.85-1.89.71-.13 1.95.17 2.24.69 1.28 2.28 2.29 4.71 3.4 7.08l-.77.29Z" fill="#a01a2a" data-color="1"></path><path d="M328.33 124.05c-.79-1.54-1.99-2.29-2.26-2.47-.9-.54-1.7-.7-1.9-.73s-.66-.09-1.25-.05c0 0-1.11.07-1.95.54-.23.13-.39.29-.39.29-.11.11-.2.2-.25.27.02-.29.02-.57.02-.86h-3.3c-.02 5.79-.04 11.58-.04 17.37h3.32c0-2.13 0-4.27.02-6.38.41.36.79.56 1.06.66.05.04.27.13.57.2 0 0 .38.11.82.16.59.05 1.68-.02 2.37-.22 1.9-.57 3.78-3.1 3.84-5.81.04-1.43-.45-2.51-.66-2.96Zm-5.32 5.75c-1.58 0-2.85-1.29-2.85-2.87s1.27-2.87 2.85-2.87 2.83 1.29 2.83 2.87-1.27 2.87-2.83 2.87Z" fill="#5b5a58" data-color="3"></path><path d="M244.78 115.46c-.02 2.11-.02 4.25-.02 6.38-.41-.36-.81-.56-1.08-.68-.05-.02-.27-.11-.56-.2 0 0-.39-.11-.82-.14-.61-.05-1.68 0-2.38.22-1.88.57-3.78 3.1-3.83 5.81a6.03 6.03 0 0 0 .68 2.94c.77 1.56 1.97 2.31 2.24 2.47.9.56 1.7.7 1.9.73.2.04.66.11 1.25.07 0 0 1.11-.07 1.95-.56.23-.13.39-.27.39-.29.11-.09.2-.2.25-.27v.88h3.3c0-5.79.02-11.58.04-17.37h-3.32Zm-2.69 14.34c-1.58 0-2.83-1.29-2.83-2.87s1.25-2.87 2.83-2.87 2.83 1.29 2.83 2.87-1.27 2.87-2.83 2.87Z" fill="#5b5a58" data-color="3"></path><path d="M223.88 129.76c-.56.05-1.02-.04-1.33-.13 2.2-1.58 4.39-3.14 6.59-4.7a6.05 6.05 0 0 0-.93-1.72 6.25 6.25 0 0 0-3.24-2.2c-.54-.14-2.03-.48-3.73.13-.54.18-1.52.61-2.42 1.56-1.86 1.99-1.67 4.53-1.65 4.73.23 2.71 2.22 4.18 2.51 4.39.41.3 1.08.72 1.97.99.25.07 1.52.45 3.17.14.59-.11 1.77-.34 2.9-1.27.47-.38.79-.77.99-1.06l-2.63-2.04c-.22.25-.99 1.06-2.2 1.18Zm-3.26-2.04c-.3-1.08 0-2.22.77-2.92.88-.81 1.99-.7 2.11-.7.7.07 1.2.39 1.4.57-1.42 1.02-2.85 2.04-4.28 3.05Z" fill="#5b5a58" data-color="3"></path><path d="m179.98 115.16-9.19 17.63h3.73l1.13-2.35 8.42-.02 1.13 2.37h3.92l-9.14-17.63Zm-2.78 12.08 2.56-5.5 2.8 5.5h-5.36Z" fill="#5b5a58" data-color="3"></path><path d="M350.3 120.77c-3.4 0-6.16 2.76-6.16 6.15s2.76 6.16 6.16 6.16 6.15-2.76 6.15-6.16-2.76-6.15-6.15-6.15Zm0 9.03c-1.58 0-2.85-1.29-2.85-2.87s1.27-2.87 2.85-2.87 2.83 1.29 2.83 2.87-1.27 2.87-2.83 2.87Z" fill="#5b5a58" data-color="3"></path><path d="M125.47 120.77c-3.4 0-6.16 2.76-6.16 6.15s2.76 6.16 6.16 6.16 6.15-2.76 6.15-6.16-2.76-6.15-6.15-6.15Zm0 9.03c-1.58 0-2.85-1.29-2.85-2.87s1.27-2.87 2.85-2.87 2.83 1.29 2.83 2.87-1.27 2.87-2.83 2.87Z" fill="#5b5a58" data-color="3"></path><path d="M7.24 115.43H0v17.4h7.24c4.78.02 8.73-3.75 8.94-8.28.23-4.84-3.82-9.16-8.94-9.12Zm.34 14.12H3.62v-10.86h3.96c2.8-.02 5.02 2.69 4.89 5.7-.13 2.83-2.28 5.18-4.89 5.16Z" fill="#5b5a58" data-color="3"></path><path d="M66.46 146.96c.54-.91 1.26-1.64 2.17-2.18.91-.54 1.9-.82 2.98-.82s2.05.27 2.97.82c.91.54 1.64 1.27 2.19 2.18.54.92.81 1.9.81 2.97s-.27 2.07-.81 2.98c-.54.91-1.27 1.64-2.19 2.17-.92.53-1.91.8-2.98.8s-2.07-.26-2.98-.79a5.889 5.889 0 0 1-2.97-5.16c0-1.1.27-2.05.81-2.97Zm1.39 5.19c.39.68.92 1.21 1.59 1.61.67.4 1.41.6 2.2.6s1.52-.2 2.19-.59 1.18-.93 1.56-1.61c.38-.68.57-1.43.57-2.23s-.19-1.55-.58-2.24-.91-1.23-1.58-1.63c-.67-.4-1.4-.6-2.19-.6s-1.53.2-2.19.61c-.67.4-1.19.95-1.57 1.64-.38.69-.57 1.44-.57 2.24s.19 1.53.58 2.21Z" fill="#5b5a58" data-color="3"></path><path d="M82.02 149.68c.32-.28.65-.5 1.01-.65.36-.15.67-.23.94-.24l-.06 1.5c-.48-.02-.92.08-1.31.29a2.386 2.386 0 0 0-1.25 2.11v3.05h-1.5v-6.68h1.34l.11 1.58c.17-.37.42-.69.73-.97Z" fill="#5b5a58" data-color="3"></path><path d="M88.06 146.14v2.95h1.82v1.19h-1.82v5.47h-1.52v-5.47h-1.23v-1.19h1.23v-2.95h1.52Z" fill="#5b5a58" data-color="3"></path><path d="M91.6 150.55c.32-.54.76-.97 1.32-1.28.57-.31 1.2-.47 1.91-.47s1.34.16 1.9.47c.55.31.98.74 1.29 1.27.31.54.46 1.14.46 1.81s-.15 1.27-.46 1.81c-.31.54-.74.97-1.3 1.28-.56.31-1.2.47-1.92.47s-1.33-.15-1.89-.44c-.56-.3-1-.71-1.31-1.25-.32-.54-.48-1.16-.48-1.87 0-.65.16-1.25.48-1.8Zm1.32 2.98c.19.36.45.64.78.84.33.2.69.31 1.09.31.62 0 1.14-.22 1.55-.66.41-.44.61-.99.61-1.65s-.2-1.21-.61-1.65c-.41-.45-.92-.67-1.55-.67-.41 0-.78.1-1.1.31s-.58.49-.77.85c-.19.36-.28.74-.28 1.16s.09.81.28 1.16Z" fill="#5b5a58" data-color="3"></path><path d="M106.41 149.25c.5.3.9.72 1.19 1.27.29.54.44 1.17.44 1.88s-.16 1.31-.47 1.85-.74.94-1.29 1.23-1.16.44-1.84.44c-.48 0-.95-.11-1.39-.32-.44-.21-.8-.49-1.06-.85v4.21h-1.5v-10h1.31l.13 1.13c.34-.39.75-.7 1.23-.93.48-.24 1-.36 1.56-.36.62 0 1.19.15 1.69.45Zm-1.09 5.15c.36-.2.65-.47.86-.82.22-.35.32-.74.32-1.17s-.1-.84-.3-1.19c-.2-.35-.47-.63-.82-.84s-.73-.31-1.14-.31c-.57 0-1.06.16-1.46.48-.4.32-.67.74-.8 1.28v1.11c.09.52.33.94.73 1.27s.88.49 1.43.49c.42 0 .81-.1 1.17-.3Z" fill="#5b5a58" data-color="3"></path><path d="m114.81 154.04.69 1.11a4.9 4.9 0 0 1-1.15.56c-.41.13-.82.2-1.2.2-.74 0-1.39-.15-1.94-.46-.55-.31-.98-.73-1.28-1.27s-.45-1.14-.45-1.82.16-1.26.49-1.8c.33-.54.78-.97 1.35-1.29.57-.32 1.19-.48 1.87-.48.87 0 1.6.26 2.19.77s.99 1.22 1.2 2.14l-5.29 1.86c.19.33.45.59.78.78.33.19.7.28 1.12.28.56 0 1.1-.19 1.63-.58Zm-3.26-3.4c-.4.43-.6.98-.6 1.65 0 .16 0 .28.02.37l3.89-1.44c-.16-.36-.39-.66-.69-.89s-.66-.34-1.1-.34c-.61 0-1.12.22-1.52.65Z" fill="#5b5a58" data-color="3"></path><path d="M125.41 143.25v12.5h-1.52v-1.05c-.32.38-.72.67-1.19.89s-.98.32-1.54.32c-.62 0-1.19-.15-1.69-.45s-.9-.72-1.18-1.27c-.29-.54-.43-1.17-.43-1.88s.15-1.35.45-1.88.71-.94 1.24-1.22 1.12-.42 1.79-.42c.51 0 .99.11 1.46.32.47.21.84.5 1.11.86v-6.73h1.5Zm-2.3 10.9c.4-.31.66-.73.78-1.26v-1.26c-.13-.48-.4-.88-.82-1.18-.42-.31-.9-.46-1.44-.46-.41 0-.78.1-1.13.3-.34.2-.62.47-.82.82-.2.35-.31.75-.31 1.19s.1.82.31 1.18c.2.35.48.63.82.84s.72.31 1.13.31c.58 0 1.07-.16 1.48-.47Z" fill="#5b5a58" data-color="3"></path><path d="M128.17 146.07c.18-.16.39-.24.63-.24s.44.08.62.24c.18.16.27.36.27.6s-.09.44-.27.6a.937.937 0 0 1-1.25 0c-.18-.16-.27-.36-.27-.6s.09-.43.27-.6Zm1.34 3v6.68h-1.5v-6.68h1.5Z" fill="#5b5a58" data-color="3"></path><path d="M138.98 149.07v6.68h-1.5v-1.1c-.24.31-.58.6-1.03.86-.45.26-.96.4-1.53.4-.64 0-1.21-.14-1.72-.41s-.91-.67-1.21-1.2-.44-1.16-.44-1.89.15-1.37.46-1.91c.31-.54.72-.96 1.24-1.26s1.1-.44 1.73-.44c.57 0 1.06.12 1.48.37.42.25.76.57 1.02.97l.11-1.06h1.39Zm-2.25 5.14c.39-.31.64-.72.75-1.25v-1.32c-.13-.47-.4-.86-.81-1.15-.41-.3-.88-.44-1.4-.44-.4 0-.77.1-1.11.29-.34.19-.61.47-.81.82-.2.35-.3.74-.3 1.18s.1.82.31 1.18.48.64.82.85.72.32 1.13.32c.55 0 1.02-.15 1.41-.46Z" fill="#5b5a58" data-color="3"></path><path d="m151.44 154.04.69 1.11a4.9 4.9 0 0 1-1.15.56c-.41.13-.82.2-1.2.2-.74 0-1.39-.15-1.94-.46-.55-.31-.98-.73-1.28-1.27s-.45-1.14-.45-1.82.16-1.26.49-1.8c.33-.54.78-.97 1.35-1.29.57-.32 1.19-.48 1.87-.48.87 0 1.6.26 2.19.77s.99 1.22 1.2 2.14l-5.29 1.86c.19.33.45.59.78.78.33.19.7.28 1.12.28.56 0 1.1-.19 1.63-.58Zm-3.26-3.4c-.4.43-.6.98-.6 1.65 0 .16 0 .28.02.37l3.89-1.44c-.16-.36-.39-.66-.69-.89s-.66-.34-1.1-.34c-.61 0-1.12.22-1.52.65Z" fill="#5b5a58" data-color="3"></path><path d="M167.68 155.56c-.58.21-1.2.32-1.88.32-1.19 0-2.25-.26-3.15-.79s-1.61-1.24-2.1-2.13-.73-1.88-.73-2.95c0-1.15.25-2.19.74-3.1.49-.92 1.18-1.64 2.06-2.16.88-.52 1.87-.78 2.98-.78a6.392 6.392 0 0 1 3.37.94l-.63 1.47c-.89-.6-1.79-.9-2.69-.9-.75 0-1.45.2-2.09.6-.64.4-1.15.94-1.53 1.62-.38.68-.57 1.43-.57 2.25s.17 1.6.52 2.27c.35.68.85 1.21 1.5 1.59s1.4.57 2.25.57c1.04 0 1.95-.29 2.72-.89l.66 1.4c-.38.25-.85.48-1.43.69Z" fill="#5b5a58" data-color="3"></path><path d="M171.52 146.07c.18-.16.39-.24.63-.24s.44.08.62.24c.18.16.27.36.27.6s-.09.44-.27.6a.937.937 0 0 1-1.25 0c-.18-.16-.27-.36-.27-.6s.09-.43.27-.6Zm1.34 3v6.68h-1.5v-6.68h1.5Z" fill="#5b5a58" data-color="3"></path><path d="M177.66 149.68c.32-.28.65-.5 1.01-.65.36-.15.67-.23.94-.24l-.06 1.5c-.48-.02-.92.08-1.31.29a2.386 2.386 0 0 0-1.25 2.11v3.05h-1.5v-6.68h1.34l.11 1.58c.17-.37.42-.69.73-.97Z" fill="#5b5a58" data-color="3"></path><path d="M187.75 149.07v6.68h-1.35l-.1-1.27c-.23.45-.58.82-1.05 1.1-.47.29-1 .43-1.58.43-.61 0-1.11-.19-1.51-.55-.39-.37-.6-.85-.62-1.44v-4.94h1.5v4.4c.02.38.13.67.33.89.2.22.5.34.89.35.37 0 .7-.11 1-.33s.54-.52.72-.91c.18-.39.27-.82.27-1.29v-3.11h1.5Z" fill="#5b5a58" data-color="3"></path><path d="M192.55 149.68c.32-.28.65-.5 1.01-.65.36-.15.67-.23.94-.24l-.06 1.5c-.48-.02-.92.08-1.31.29a2.386 2.386 0 0 0-1.25 2.11v3.05h-1.5v-6.68h1.34l.11 1.58c.17-.37.42-.69.73-.97Z" fill="#5b5a58" data-color="3"></path><path d="M203.48 149.07v6.73c0 .61-.16 1.17-.47 1.66-.31.49-.76.89-1.33 1.18-.57.29-1.25.43-2.02.43-.68 0-1.26-.11-1.75-.34-.49-.23-.98-.56-1.48-1l.89-1.03c.37.34.73.6 1.1.78.37.18.77.27 1.21.27.74 0 1.31-.18 1.72-.53.4-.36.61-.83.62-1.44l.02-1.26c-.25.42-.61.75-1.09 1.01-.48.25-1.03.38-1.65.38s-1.18-.16-1.69-.47-.93-.74-1.23-1.27-.46-1.13-.46-1.79.16-1.29.48-1.83c.32-.54.74-.97 1.28-1.28s1.11-.47 1.73-.47c.57 0 1.1.11 1.58.34.48.23.84.52 1.08.87l.11-.93h1.37Zm-2.32 5.13c.42-.31.69-.72.82-1.23v-1.32c-.15-.48-.44-.87-.86-1.17-.42-.3-.9-.44-1.45-.44-.66 0-1.2.22-1.65.64-.44.43-.66.98-.66 1.65 0 .43.1.82.31 1.18s.48.64.84.85c.36.21.74.32 1.16.32.57 0 1.06-.16 1.48-.47Z" fill="#5b5a58" data-color="3"></path><path d="M206.25 146.07c.18-.16.39-.24.63-.24s.44.08.62.24c.18.16.27.36.27.6s-.09.44-.27.6a.937.937 0 0 1-1.25 0c-.18-.16-.27-.36-.27-.6s.09-.43.27-.6Zm1.34 3v6.68h-1.5v-6.68h1.5Z" fill="#5b5a58" data-color="3"></path><path d="M217.05 149.07v6.68h-1.5v-1.1c-.24.31-.58.6-1.03.86-.45.26-.96.4-1.53.4-.64 0-1.21-.14-1.72-.41s-.91-.67-1.21-1.2-.44-1.16-.44-1.89.15-1.37.46-1.91c.31-.54.72-.96 1.24-1.26s1.1-.44 1.73-.44c.57 0 1.06.12 1.48.37.42.25.76.57 1.02.97l.11-1.06h1.39Zm-2.25 5.14c.39-.31.64-.72.75-1.25v-1.32c-.13-.47-.4-.86-.81-1.15-.41-.3-.88-.44-1.4-.44-.4 0-.77.1-1.11.29-.34.19-.61.47-.81.82-.2.35-.3.74-.3 1.18s.1.82.31 1.18.48.64.82.85.72.32 1.13.32c.55 0 1.02-.15 1.41-.46Z" fill="#5b5a58" data-color="3"></path><path d="M231.73 143.25v12.5h-1.52v-1.05c-.32.38-.72.67-1.19.89s-.98.32-1.54.32c-.62 0-1.19-.15-1.69-.45s-.9-.72-1.18-1.27c-.29-.54-.43-1.17-.43-1.88s.15-1.35.45-1.88.71-.94 1.24-1.22 1.12-.42 1.79-.42c.51 0 .99.11 1.46.32.47.21.84.5 1.11.86v-6.73h1.5Zm-2.3 10.9c.4-.31.66-.73.78-1.26v-1.26c-.13-.48-.4-.88-.82-1.18-.42-.31-.9-.46-1.44-.46-.41 0-.78.1-1.13.3-.34.2-.62.47-.82.82-.2.35-.31.75-.31 1.19s.1.82.31 1.18c.2.35.48.63.82.84s.72.31 1.13.31c.58 0 1.07-.16 1.48-.47Z" fill="#5b5a58" data-color="3"></path><path d="M234.22 150.55c.32-.54.76-.97 1.32-1.28.57-.31 1.2-.47 1.91-.47s1.34.16 1.9.47c.55.31.98.74 1.29 1.27.31.54.46 1.14.46 1.81s-.15 1.27-.46 1.81c-.31.54-.74.97-1.3 1.28-.56.31-1.2.47-1.92.47s-1.33-.15-1.89-.44c-.56-.3-1-.71-1.31-1.25-.32-.54-.48-1.16-.48-1.87 0-.65.16-1.25.48-1.8Zm1.32 2.98c.19.36.45.64.78.84.33.2.69.31 1.09.31.62 0 1.14-.22 1.55-.66.41-.44.61-.99.61-1.65s-.2-1.21-.61-1.65c-.41-.45-.92-.67-1.55-.67-.41 0-.78.1-1.1.31s-.58.49-.77.85c-.19.36-.28.74-.28 1.16s.09.81.28 1.16Z" fill="#5b5a58" data-color="3"></path><path d="M250.59 156.03c-.36.67-.85 1.19-1.48 1.55s-1.35.55-2.15.57v-1.52c.79-.04 1.43-.32 1.9-.83s.7-1.25.7-2.22v-9.5h1.56v9.55c0 .92-.18 1.72-.53 2.39Z" fill="#5b5a58" data-color="3"></path><path d="M254 150.55c.32-.54.76-.97 1.32-1.28.57-.31 1.2-.47 1.91-.47s1.34.16 1.9.47c.55.31.98.74 1.29 1.27.31.54.46 1.14.46 1.81s-.15 1.27-.46 1.81c-.31.54-.74.97-1.3 1.28-.56.31-1.2.47-1.92.47s-1.33-.15-1.89-.44c-.56-.3-1-.71-1.31-1.25-.32-.54-.48-1.16-.48-1.87 0-.65.16-1.25.48-1.8Zm1.32 2.98c.19.36.45.64.78.84.33.2.69.31 1.09.31.62 0 1.14-.22 1.55-.66.41-.44.61-.99.61-1.65s-.2-1.21-.61-1.65c-.41-.45-.92-.67-1.55-.67-.41 0-.78.1-1.1.31s-.58.49-.77.85c-.19.36-.28.74-.28 1.16s.09.81.28 1.16Z" fill="#5b5a58" data-color="3"></path><path d="m267.65 154.04.69 1.11a4.9 4.9 0 0 1-1.15.56c-.41.13-.82.2-1.2.2-.74 0-1.39-.15-1.94-.46-.55-.31-.98-.73-1.28-1.27s-.45-1.14-.45-1.82.16-1.26.49-1.8c.33-.54.78-.97 1.35-1.29.57-.32 1.19-.48 1.87-.48.87 0 1.6.26 2.19.77s.99 1.22 1.2 2.14l-5.29 1.86c.19.33.45.59.78.78.33.19.7.28 1.12.28.56 0 1.1-.19 1.63-.58Zm-3.26-3.4c-.4.43-.6.98-.6 1.65 0 .16 0 .28.02.37l3.89-1.44c-.16-.36-.39-.66-.69-.89s-.66-.34-1.1-.34c-.61 0-1.12.22-1.52.65Z" fill="#5b5a58" data-color="3"></path><path d="M272.78 143.25v12.5h-1.5v-12.5h1.5Z" fill="#5b5a58" data-color="3"></path><path d="M281.09 149.37c.41.37.62.85.63 1.44v4.94h-1.52v-4.42c-.02-.38-.13-.67-.34-.89-.2-.22-.51-.33-.92-.34-.39 0-.74.11-1.05.32s-.56.52-.73.9c-.18.39-.27.82-.27 1.29v3.13h-1.5v-12.5h1.47v7.03c.25-.44.61-.8 1.07-1.06.47-.27 1-.4 1.6-.4s1.14.19 1.55.56Z" fill="#5b5a58" data-color="3"></path><path d="M284.21 150.55c.32-.54.76-.97 1.32-1.28.57-.31 1.2-.47 1.91-.47s1.34.16 1.9.47c.55.31.98.74 1.29 1.27.31.54.46 1.14.46 1.81s-.15 1.27-.46 1.81c-.31.54-.74.97-1.3 1.28-.56.31-1.2.47-1.92.47s-1.33-.15-1.89-.44c-.56-.3-1-.71-1.31-1.25-.32-.54-.48-1.16-.48-1.87 0-.65.16-1.25.48-1.8Zm1.32 2.98c.19.36.45.64.78.84.33.2.69.31 1.09.31.62 0 1.14-.22 1.55-.66.41-.44.61-.99.61-1.65s-.2-1.21-.61-1.65c-.41-.45-.92-.67-1.55-.67-.41 0-.78.1-1.1.31s-.58.49-.77.85c-.19.36-.28.74-.28 1.16s.09.81.28 1.16Z" fill="#5b5a58" data-color="3"></path><path d="M47.04 152.08H36.35v-.94h10.69v.94Z" fill="#5b5a58" data-color="3"></path><path d="M57.51 152.08H46.82v-.94h10.69v.94Z" fill="#5b5a58" data-color="3"></path><path d="M309.67 152.08h-10.69v-.94h10.69v.94Z" fill="#5b5a58" data-color="3"></path><path d="M320.14 152.08h-10.69v-.94h10.69v.94Z" fill="#5b5a58" data-color="3"></path><path fill="#5b5a58" d="M30.28 131.32a1.82 1.82 0 1 1-3.64 0 1.82 1.82 0 0 1 3.64 0z" data-color="3"></path><path fill="#5b5a58" d="M159.76 131.32a1.82 1.82 0 1 1-3.64 0 1.82 1.82 0 0 1 3.64 0z" data-color="3"></path><path d="M18.23 121.04h3.31v.8c.23-.24.7-.65 1.41-.9.9-.31 1.68-.18 2.01-.1v3.41c-.23-.08-.98-.32-1.82 0-.16.06-.63.25-1.02.72-.26.32-.37.63-.44.86-.2.62-.14 1.02-.14 2.4v4.57h-3.3v-11.75Z" fill="#5b5a58" data-color="3"></path><path d="M56.08 121.46c.95-.69 1.9-1.38 2.85-2.08-.15-.25-.37-.59-.67-.97-.26-.32-1.37-1.65-3.34-2.52-1.69-.74-3.21-.8-4.05-.77-3.33.25-6.27 2.24-7.65 5.2-1.35 2.91-.88 6.06.33 8.26a8.575 8.575 0 0 0 1.78 2.24c2.69 2.4 6.54 2.99 9.76 1.52 3.43-1.57 5.53-5.18 5.21-9.01h-8.9c0 1.07.01 2.14.02 3.21l4.69-.03c-.2.49-.67 1.42-1.65 2.15-1.44 1.07-3.35 1.24-4.92.64-1.87-.71-3.18-2.47-3.4-4.54-.32-2.96 1.64-5.59 4.26-6.09 2.17-.42 4.49.69 5.68 2.79Z" fill="#5b5a58" data-color="3"></path><path fill="#5b5a58" d="M143.79 115.45h3.61v14.1h6.97v3.25h-10.58v-17.35z" data-color="3"></path><path fill="#5b5a58" d="M193.43 115.42v17.37h-3.31v-17.37h3.31z" data-color="3"></path><path fill="#5b5a58" d="M234.59 117.12c0 1.022-.873 1.85-1.95 1.85s-1.95-.828-1.95-1.85c0-1.022.873-1.85 1.95-1.85s1.95.828 1.95 1.85z" data-color="3"></path><path fill="#5b5a58" d="M234.3 121.04v11.75h-3.31v-11.75h3.31z" data-color="3"></path><path fill="#5b5a58" d="M293.14 117.12c0 1.022-.873 1.85-1.95 1.85s-1.95-.828-1.95-1.85c0-1.022.873-1.85 1.95-1.85s1.95.828 1.95 1.85z" data-color="3"></path><path fill="#5b5a58" d="M292.85 121.04v11.75h-3.31v-11.75h3.31z" data-color="3"></path><path d="M62.18 121.04h3.29v5.91c-.07 1.49 1.11 2.75 2.55 2.8 1.49.05 2.77-1.21 2.72-2.75 0-1.98 0-3.96.01-5.95h3.27v11.76h-3.27v-.82c-.26.26-.51.41-.68.51-.22.12-.4.18-.61.25-.33.11-.59.16-.75.19 0 0-.32.06-.63.09-1.34.13-2.37-.24-2.37-.24-.75-.28-1.24-.69-1.52-.93-.2-.17-1.22-1.08-1.73-2.7-.14-.45-.3-1.14-.28-2.02v-6.09Z" fill="#5b5a58" data-color="3"></path><path d="M80.74 124.35c.79-.58 1.59-1.15 2.38-1.73a4.1 4.1 0 0 0-1.44-1.33c-.31-.17-1.21-.61-2.39-.49-.21.02-.57.08-1 .24-.26.1-2.11.85-2.5 2.67a3.45 3.45 0 0 0 .19 2.02c.04.09.19.45.52.84.82.99 1.98 1.33 2.53 1.44.1.01.24.03.4.08.36.1.71.19.89.5.12.21.16.52.02.78-.16.29-.47.37-.57.39-.18.05-.33.02-.53-.01-.15-.02-.41-.07-.69-.25-.13-.08-.22-.17-.28-.23-.94.67-1.87 1.35-2.81 2.02.29.35.84.91 1.7 1.32 1.26.6 2.4.5 2.83.45.56-.06 1.64-.17 2.64-1 .8-.67 1.15-1.47 1.3-1.88.11-.39.46-1.81-.23-2.99-.21-.36-.49-.64-.55-.71-.59-.59-1.24-.84-1.63-.98a4.39 4.39 0 0 0-1.14-.29c-.2-.02-.35-.02-.6-.09-.22-.06-.64-.18-.76-.49-.03-.08-.03-.16-.03-.19 0-.24.18-.4.21-.43.18-.16.41-.16.54-.16.29 0 .51.14.7.25.14.09.25.17.32.24Z" fill="#5b5a58" data-color="3"></path><path d="m86.52 119.51 3.3-2.4v3.93c.94 0 1.87.01 2.81.02v3.04h-2.8c0 1.29.01 2.58.02 3.86 0 .19.05.55.29.9.3.43.72.58 1.08.7.54.19 1.05.2 1.41.16l-.09 3.38c-.23 0-.53-.01-.87-.05-.22-.03-.72-.1-1.33-.29-.44-.14-1-.32-1.63-.73-.08-.06-.53-.35-.92-.77-.97-1.03-1.23-2.37-1.3-2.95l.03-4.2h-1.77v-3.06h1.77v-1.52Z" fill="#5b5a58" data-color="3"></path><path fill="#5b5a58" d="M106.63 121.03h3.63l2.84 5.72 2.5-5.72h3.24l-5.87 12.07-6.34-12.07z" data-color="3"></path><path d="M102.31 121.03v.81c-.41-.36-.79-.56-1.06-.68-.05-.02-.27-.11-.57-.2 0 0-.38-.11-.82-.14-.59-.05-1.68 0-2.37.22-1.9.57-3.78 3.1-3.84 5.81-.04 1.42.45 2.51.66 2.94.79 1.56 1.99 2.31 2.26 2.47.9.56 1.7.7 1.9.73.2.04.66.11 1.25.07 0 0 1.09-.07 1.95-.56.22-.13.39-.27.39-.29.11-.09.2-.2.25-.27-.02.29-.02.57-.02.88h3.3v-11.79h-3.3Zm-.75 8.06c-.18.16-.84.72-1.83.72-1.29 0-2.06-.95-2.17-1.09-.57-.75-.57-1.54-.57-1.76 0-.2.02-1.51 1.09-2.31.63-.48 1.31-.56 1.65-.56.22 0 .9 0 1.54.45 1.18.79 1.2 2.26 1.2 2.42 0 .34-.07 1.36-.91 2.13Z" fill="#5b5a58" data-color="3"></path><path d="M258.61 121.03v.81c-.41-.36-.79-.56-1.06-.68-.05-.02-.27-.11-.57-.2 0 0-.38-.11-.82-.14-.59-.05-1.68 0-2.37.22-1.9.57-3.78 3.1-3.84 5.81-.04 1.42.45 2.51.66 2.94.79 1.56 1.99 2.31 2.26 2.47.9.56 1.7.7 1.9.73.2.04.66.11 1.25.07 0 0 1.09-.07 1.95-.56.22-.13.39-.27.39-.29.11-.09.2-.2.25-.27-.02.29-.02.57-.02.88h3.3v-11.79h-3.3Zm-.75 8.06c-.18.16-.84.72-1.83.72-1.29 0-2.06-.95-2.17-1.09-.57-.75-.57-1.54-.57-1.76 0-.2.02-1.51 1.09-2.31.63-.48 1.31-.56 1.65-.56.22 0 .9 0 1.54.45 1.18.79 1.2 2.26 1.2 2.42 0 .34-.07 1.36-.91 2.13Z" fill="#5b5a58" data-color="3"></path><path d="M339.05 121.02v.81c-.41-.36-.79-.56-1.06-.68-.05-.02-.27-.11-.57-.2 0 0-.38-.11-.82-.14-.59-.05-1.68 0-2.37.22-1.9.57-3.78 3.1-3.84 5.81-.04 1.42.45 2.51.66 2.94.79 1.56 1.99 2.31 2.26 2.47.9.56 1.7.7 1.9.73.2.04.66.11 1.25.07 0 0 1.09-.07 1.95-.56.22-.13.39-.27.39-.29.11-.09.2-.2.25-.27-.02.29-.02.57-.02.88h3.3v-11.79h-3.3Zm-.75 8.06c-.18.16-.84.72-1.83.72-1.29 0-2.06-.95-2.17-1.09-.57-.75-.57-1.54-.57-1.76 0-.2.02-1.51 1.09-2.31.63-.48 1.31-.56 1.65-.56.22 0 .9 0 1.54.45 1.18.79 1.2 2.26 1.2 2.42 0 .34-.07 1.36-.91 2.13Z" fill="#5b5a58" data-color="3"></path><path d="M331.63 117.6c.78.57 1.57 1.14 2.35 1.72.05-.05.12-.12.2-.19 0 0 .12-.1.24-.19s.38-.25.68-.35c.13-.04.76-.24 1.44-.01.2.07.13.08.92.45.31.15.47.22.57.26.13.04.6.2 1.22.14.12-.01.67-.06 1.28-.41.28-.16.46-.31.71-.52.27-.23.63-.58 1.01-1.06-.77-.56-1.54-1.12-2.3-1.68-.16.19-.32.33-.44.43-.1.08-.19.15-.33.23-.19.1-.37.15-.49.18-.14.01-.34.02-.57-.02-.19-.03-.33-.08-.53-.16-.71-.28-.84-.37-1.18-.48 0 0-.3-.1-.66-.15-1.25-.19-2.41.43-2.63.55a4.7 4.7 0 0 0-1.47 1.28Z" fill="#5b5a58" data-color="3"></path><path d="M195.77 121.04h3.31v.82c.07-.08.15-.18.27-.27.16-.13.31-.22.43-.27a4.955 4.955 0 0 1 2.76-.52c.49.04 1.55.15 2.54.93.42.32.69.67.87.92.09-.13.23-.31.43-.52 1.46-1.5 4.19-1.87 6.21-.85 1.04.53 1.62 1.29 1.77 1.48.6.81.79 1.62.94 2.29.19.82.22 1.53.22 2.01 0 1.92.01 3.84.02 5.76h-3.31c0-1.98.01-3.96.02-5.95 0-.27-.02-.97-.5-1.64-.11-.16-.77-1.09-1.92-1.12-1.14-.04-1.96.82-2.2 1.34-.03.06-.09.21-.15.4-.14.43-.18.8-.19 1.06 0 1.97-.01 3.94-.02 5.91-1.1 0-2.19-.01-3.29-.02 0-1.96-.01-3.93-.02-5.89-.04-1.63-1.24-2.81-2.42-2.81-1.08 0-1.96.99-2.29 1.87-.14.37-.17.71-.17.94 0 1.96 0 3.93.01 5.89h-3.3v-11.77Z" fill="#5b5a58" data-color="3"></path><path d="M295.2 121.04h3.31v.82c.07-.08.15-.18.27-.27.16-.13.31-.22.43-.27a4.955 4.955 0 0 1 2.76-.52c.49.04 1.55.15 2.54.93.42.32.69.67.87.92.09-.13.23-.31.43-.52 1.46-1.5 4.19-1.87 6.21-.85 1.04.53 1.62 1.29 1.77 1.48.6.81.79 1.62.94 2.29.19.82.22 1.53.22 2.01 0 1.92.01 3.84.02 5.76h-3.31c0-1.98.01-3.96.02-5.95 0-.27-.02-.97-.5-1.64-.11-.16-.77-1.09-1.92-1.12-1.14-.04-1.96.82-2.2 1.34-.03.06-.09.21-.15.4-.14.43-.18.8-.19 1.06 0 1.97-.01 3.94-.02 5.91-1.1 0-2.19-.01-3.29-.02 0-1.96-.01-3.93-.02-5.89-.04-1.63-1.24-2.81-2.42-2.81-1.08 0-1.96.99-2.29 1.87-.14.37-.17.71-.17.94 0 1.96 0 3.93.01 5.89h-3.3v-11.77Z" fill="#5b5a58" data-color="3"></path><path d="M287.65 122.16c-.02-.3-.02-.59-.09-.97-.29-1.65-1.2-2.76-1.51-3.12-.63-.73-1.25-1.16-1.61-1.42-.27-.18-.75-.5-1.45-.79-.54-.22-1.4-.48-2.53-.5h-6.02v17.42h3.62l.05-2.56h2.67c.88 0 2.42-.34 3.94-1.49 1.63-1.24 2.46-2.96 2.74-4.19.13-.56.22-1.42.18-2.38Zm-4.95 3.94c-.81.63-1.85.77-2.13.81-.41.04-.97.04-1.33.04-.48 0-.88-.02-1.15-.04v-8.23h1.06c.9 0 1.15-.04 1.58.02 0 0 .68.09 1.25.36 1.25.59 1.99 2.28 2.03 3.73 0 .32.04 2.26-1.31 3.32Z" fill="#5b5a58" data-color="3"></path></g></svg>