<svg width="64" height="64" viewBox="0 0 64 64" fill="none" xmlns="http://www.w3.org/2000/svg">
  <path d="M32 6C17.646 6 6 17.504 6 31.694C6 36.652 7.431 41.273 10.109 45.194L6.715 58L20.018 54.729C23.673 56.678 27.855 57.389 32 57.389C46.354 57.389 58 45.885 58 31.694C58 17.504 46.354 6 32 6Z" fill="#25D366"/>
  <path d="M45.164 38.321C44.642 38.064 42.08 36.813 41.602 36.639C41.123 36.465 40.775 36.382 40.427 36.896C40.079 37.41 39.078 38.578 38.774 38.925C38.47 39.272 38.165 39.315 37.644 39.058C37.122 38.801 35.442 38.255 33.451 36.49C31.901 35.114 30.853 33.415 30.549 32.901C30.244 32.387 30.516 32.109 30.778 31.854C31.013 31.626 31.3 31.258 31.562 30.954C31.823 30.65 31.91 30.44 32.084 30.093C32.258 29.746 32.171 29.443 32.041 29.186C31.91 28.929 30.866 26.418 30.431 25.375C30.007 24.357 29.577 24.496 29.257 24.48C28.953 24.464 28.605 24.461 28.257 24.461C27.909 24.461 27.343 24.591 26.865 25.105C26.386 25.619 25.039 26.869 25.039 29.414C25.039 31.959 26.909 34.42 27.169 34.767C27.43 35.114 30.831 40.312 36.039 42.526C37.278 43.059 38.246 43.377 39.001 43.616C40.246 44.013 41.381 43.957 42.278 43.826C43.278 43.678 45.36 42.575 45.794 41.367C46.229 40.158 46.229 39.123 46.099 38.892C45.968 38.66 45.686 38.578 45.164 38.321Z" fill="white"/>
</svg>
